<svg width="177" height="177" viewBox="0 0 177 177" fill="none" xmlns="http://www.w3.org/2000/svg">
<path d="M55.6476 53.6412L58.2285 50.8896C59.2609 49.7906 59.9311 49.1246 61.0508 50.1361L127.547 109.926C129.203 111.424 129.307 113.989 127.78 115.62L124.716 118.884C123.188 120.512 120.624 120.57 119.021 119.013L55.0773 56.501C53.995 55.452 54.6152 54.7401 55.6476 53.6412Z" fill="#373785"/>
<path d="M128.146 110.6C128.088 110.525 128.029 110.454 127.975 110.375C127.971 110.371 127.888 110.267 127.784 110.163C127.676 110.051 127.547 109.934 127.547 109.926L125.103 107.728L86.4977 72.9438C85.0532 74.6672 85.1864 77.2356 86.8432 78.7925L92.1715 83.792C93.6202 86.7017 90.8686 85.1823 90.8686 85.1823L85.7692 80.3952C83.9751 78.7093 81.2069 78.7134 79.4127 80.3369L119.221 119.279C119.408 119.396 119.587 119.517 119.762 119.654C119.825 119.675 119.887 119.691 119.945 119.712C120.083 119.75 120.212 119.804 120.333 119.866L120.407 119.787C122.302 117.768 122.202 114.596 120.183 112.702L117.21 109.913C115 106.496 118.513 108.523 118.513 108.523L121.968 111.766C123.767 113.452 126.593 113.364 128.279 111.566L128.525 111.304C128.412 111.066 128.4 110.971 128.146 110.6Z" fill="#328ACA"/>
<path d="M98.7279 99.1693C99.3648 98.4907 99.9975 97.8164 100.634 97.1378L98.7279 99.1693Z" fill="#328ACA"/>
<path d="M98.7279 99.1691C98.7445 99.0234 98.7778 98.8986 98.8111 98.7695L99.0526 98.5156L99.5271 98.0077L100.002 97.4999L100.239 97.2459C100.364 97.2043 100.489 97.1627 100.63 97.1335C100.614 97.2751 100.576 97.4 100.543 97.529L100.306 97.7829L99.831 98.2908L99.3564 98.7987L99.1192 99.0526C98.9943 99.1025 98.8694 99.1442 98.7279 99.1691Z" fill="#27619A"/>
<path d="M101.971 102.345C102.637 101.634 103.307 100.922 103.973 100.21L101.971 102.345Z" fill="#328ACA"/>
<path d="M101.971 102.345C101.991 102.195 102.029 102.066 102.066 101.933L102.32 101.667L102.82 101.134L103.319 100.601L103.569 100.335C103.698 100.289 103.827 100.243 103.973 100.21C103.952 100.356 103.91 100.489 103.873 100.618L103.623 100.884L103.124 101.417L102.624 101.95L102.374 102.216C102.245 102.27 102.116 102.316 101.971 102.345Z" fill="#27619A"/>
<path d="M105.197 105.521C105.896 104.776 106.595 104.031 107.299 103.282L105.197 105.521Z" fill="#328ACA"/>
<path d="M105.197 105.522C105.222 105.368 105.263 105.234 105.305 105.097L105.567 104.818L106.092 104.26L106.616 103.702L106.879 103.424C107.012 103.374 107.145 103.324 107.295 103.286C107.27 103.436 107.224 103.573 107.182 103.707L106.92 103.985L106.396 104.543L105.871 105.101L105.609 105.384C105.48 105.438 105.351 105.488 105.197 105.522Z" fill="#27619A"/>
<path d="M108.448 108.681C109.147 107.936 109.847 107.191 110.55 106.441L108.448 108.681Z" fill="#328ACA"/>
<path d="M108.448 108.681C108.473 108.527 108.514 108.394 108.556 108.256L108.818 107.978L109.343 107.42L109.867 106.862L110.13 106.583C110.263 106.533 110.396 106.483 110.546 106.446C110.521 106.596 110.475 106.733 110.434 106.866L110.171 107.145L109.647 107.703L109.122 108.261L108.86 108.544C108.731 108.594 108.598 108.648 108.448 108.681Z" fill="#27619A"/>
<path d="M111.695 111.845C112.427 111.066 113.16 110.284 113.893 109.505L111.695 111.845Z" fill="#328ACA"/>
<path d="M111.695 111.845C111.724 111.687 111.77 111.549 111.816 111.408L112.09 111.116L112.64 110.529L113.189 109.942L113.464 109.651C113.601 109.597 113.739 109.543 113.889 109.501C113.859 109.655 113.809 109.797 113.768 109.934L113.493 110.225L112.944 110.812L112.394 111.399L112.119 111.695C111.986 111.749 111.849 111.807 111.695 111.845Z" fill="#27619A"/>
<path d="M104.552 92.9627C105.188 92.2842 105.821 91.6098 106.458 90.9313L104.552 92.9627Z" fill="#328ACA"/>
<path d="M104.552 92.9625C104.568 92.8168 104.601 92.6919 104.635 92.5628L104.876 92.3089L105.351 91.8011L105.825 91.2932L106.063 91.0393C106.187 90.9976 106.312 90.956 106.454 90.9269C106.437 91.0684 106.4 91.1933 106.366 91.3223L106.129 91.5763L105.655 92.0841L105.18 92.592L104.943 92.8459C104.818 92.8959 104.693 92.9375 104.552 92.9625Z" fill="#27619A"/>
<path d="M107.761 96.1636C108.427 95.4517 109.097 94.7399 109.763 94.0281L107.761 96.1636Z" fill="#328ACA"/>
<path d="M107.761 96.1636C107.782 96.0137 107.819 95.8847 107.857 95.7515L108.111 95.485L108.61 94.9522L109.11 94.4194L109.36 94.153C109.489 94.1072 109.618 94.0614 109.763 94.0281C109.742 94.1738 109.701 94.307 109.663 94.436L109.414 94.7024L108.914 95.2353L108.415 95.7681L108.165 96.0345C108.036 96.0845 107.907 96.1303 107.761 96.1636Z" fill="#27619A"/>
<path d="M111.133 99.1941C111.799 98.4823 112.469 97.7704 113.135 97.0586L111.133 99.1941Z" fill="#328ACA"/>
<path d="M111.133 99.1941C111.154 99.0442 111.191 98.9152 111.229 98.782L111.483 98.5156L111.982 97.9827L112.482 97.4499L112.731 97.1835C112.86 97.1377 112.989 97.0919 113.135 97.0586C113.114 97.2043 113.073 97.3375 113.035 97.4665L112.785 97.733L112.286 98.2658L111.786 98.7986L111.537 99.0651C111.408 99.115 111.283 99.165 111.133 99.1941Z" fill="#27619A"/>
<path d="M114.326 102.408C115.058 101.629 115.791 100.847 116.524 100.068L114.326 102.408Z" fill="#328ACA"/>
<path d="M114.326 102.408C114.355 102.25 114.401 102.112 114.446 101.971L114.721 101.679L115.271 101.092L115.82 100.505L116.095 100.214C116.232 100.16 116.37 100.106 116.519 100.064C116.49 100.218 116.44 100.36 116.399 100.497L116.124 100.788L115.574 101.375L115.025 101.962L114.75 102.258C114.617 102.312 114.48 102.37 114.326 102.408Z" fill="#27619A"/>
<path d="M117.802 105.338C118.501 104.593 119.2 103.848 119.9 103.103L117.802 105.338Z" fill="#328ACA"/>
<path d="M117.802 105.338C117.827 105.184 117.868 105.051 117.91 104.914L118.172 104.635L118.697 104.077L119.221 103.519L119.483 103.24C119.617 103.19 119.75 103.14 119.9 103.103C119.875 103.253 119.829 103.39 119.787 103.523L119.525 103.802L119 104.36L118.476 104.918L118.214 105.201C118.085 105.255 117.951 105.305 117.802 105.338Z" fill="#27619A"/>
<path d="M71.2329 39.288L45.861 66.3209C42.1686 70.2547 35.987 70.4503 32.049 66.758L22.0168 57.3418C18.083 53.6495 17.8873 47.4678 21.5797 43.5298L46.9516 16.497C50.644 12.5632 56.8257 12.3675 60.7636 16.0599L70.7958 25.476C74.7296 29.1725 74.9294 35.3542 71.2329 39.288Z" fill="#F4D7CB"/>
<path d="M54.378 56.4094C54.378 56.4094 56.8215 52.7961 60.8302 49.6741L58.9195 49.0122L53.3414 55.4187L54.378 56.4094Z" fill="#F4D7CB"/>
<path d="M40.8449 96.813L40.6825 96.9879C39.2297 96.9213 38.3805 96.8838 38.1349 96.8838C37.6562 96.8838 37.2233 96.8921 36.832 96.9129C36.2575 96.9421 35.8912 96.9587 35.733 96.9587C35.4125 96.9587 35.1378 96.8713 34.913 96.6965C34.3676 96.276 33.6683 95.5892 32.8191 94.6317L26.0005 87.0056V90.4732C26.0005 92.796 26.063 94.3071 26.192 95.0106C26.242 95.2936 26.4085 95.4726 26.6915 95.5517C26.8372 95.5892 27.4075 95.6391 28.4024 95.6974L28.5481 95.8431V96.8255L28.4149 96.9712C27.4408 96.9129 25.9381 96.8838 23.9067 96.8838C21.8086 96.8838 20.3059 96.9129 19.3984 96.9712L19.2527 96.838V95.8431L19.3984 95.6974C20.3933 95.6391 20.9636 95.5892 21.1093 95.5517C21.3924 95.4726 21.5589 95.2936 21.6088 95.0106C21.7337 94.3071 21.8003 92.796 21.8003 90.4732V82.7305C21.8003 80.4077 21.7379 78.8966 21.6088 78.1931C21.5589 77.91 21.3924 77.731 21.1093 77.6519C20.9636 77.6144 20.3933 77.5645 19.3984 77.5062L19.2527 77.3605V76.3656L19.3984 76.2324C20.335 76.2907 21.8378 76.3198 23.9067 76.3198C26.0255 76.3198 27.5283 76.2907 28.4149 76.2324L28.5481 76.3656V77.3605L28.4024 77.5062C27.4075 77.5645 26.8372 77.6144 26.6915 77.6519C26.4085 77.731 26.242 77.91 26.192 78.1931C26.0671 78.8966 26.0005 80.4077 26.0005 82.7305V86.3604C26.4792 85.8608 27.5241 84.7952 29.1309 83.1551C29.9801 82.285 30.5795 81.6565 30.9292 81.2652C31.8867 80.2037 32.5236 79.4585 32.8482 79.0423C33.3769 78.3596 33.6392 77.8767 33.6392 77.5936C33.6392 77.4771 33.5934 77.3938 33.506 77.3439L33.3436 77.2107V76.3781L33.5184 76.2324C34.5924 76.2907 35.5957 76.3198 36.5323 76.3198C37.1775 76.3198 38.1308 76.2907 39.4004 76.2324L39.5628 76.3781V77.3605L39.4171 77.4937C38.3639 77.5312 37.5896 77.6644 37.0901 77.8892C36.6821 78.0765 36.0369 78.5427 35.1586 79.2962C34.1845 80.1246 32.9232 81.2818 31.383 82.7638C30.8085 83.3299 30.0384 84.0709 29.0726 84.9867L37.4439 93.6785C38.597 94.8773 39.6835 95.5725 40.7075 95.7557L40.8407 95.9014V96.813H40.8449Z" fill="#373785"/>
<path d="M45.0035 92.7002C45.6279 92.7002 46.1649 92.9208 46.6144 93.3662C47.064 93.8116 47.2888 94.3653 47.2888 95.0272C47.2888 95.6724 47.064 96.2177 46.6144 96.6673C46.1649 97.1169 45.6279 97.3416 45.0035 97.3416C44.379 97.3416 43.842 97.1169 43.3883 96.6631C42.9346 96.2094 42.7098 95.6641 42.7098 95.0313C42.7098 94.3861 42.9346 93.8366 43.3841 93.3829C43.8254 92.925 44.3666 92.7002 45.0035 92.7002Z" fill="#373785"/>
<path d="M154.326 89.4158C154.326 91.5638 153.464 93.2081 151.736 94.3487C150.263 95.3353 148.389 95.8265 146.117 95.8265C145.659 95.8265 144.764 95.8015 143.44 95.7516C142.641 95.7224 141.966 95.7058 141.421 95.7058C140.942 95.7058 139.427 95.7349 136.871 95.7932L136.738 95.6891V94.6651L136.884 94.5194C137.878 94.4611 138.449 94.4111 138.594 94.3737C138.878 94.2946 139.044 94.1156 139.094 93.8325C139.219 93.129 139.286 91.6179 139.286 89.2951V81.5524C139.286 79.2296 139.223 77.7185 139.094 77.015C139.044 76.732 138.878 76.553 138.594 76.4739C138.449 76.4364 137.878 76.3864 136.884 76.3282L136.738 76.1825V75.1876L136.884 75.0544L144.801 75.1418L150.845 75.1127C151.536 75.0918 152.123 75.0544 152.602 74.9961L152.764 75.1418C152.648 75.8162 152.585 76.5405 152.573 77.3231L152.544 79.8249L152.398 79.9706H151.462L151.316 79.8374C151.287 79.2712 151.258 78.7051 151.228 78.139C151.12 77.3897 150.858 76.9401 150.438 76.7944C150.134 76.6862 149.139 76.6321 147.453 76.6321H143.619C143.532 79.0506 143.486 80.545 143.486 81.1112V83.9044C146.15 83.9044 148.061 84.0084 149.222 84.2124C152.623 84.8285 154.326 86.5602 154.326 89.4158ZM149.905 89.6948C149.905 88.3002 149.497 87.2262 148.677 86.477C147.944 85.8151 146.991 85.4571 145.809 85.4071C145.321 85.3863 144.543 85.378 143.482 85.378V94.1447C143.939 94.2113 144.497 94.2488 145.151 94.2488C146.262 94.2488 147.074 94.1614 147.582 93.9865C148.315 93.7243 148.897 93.1956 149.339 92.4047C149.713 91.7095 149.905 90.8062 149.905 89.6948Z" fill="#373785"/>
<path d="M159.77 91.5222C160.395 91.5222 160.932 91.7428 161.381 92.1883C161.831 92.6337 162.056 93.1873 162.056 93.8492C162.056 94.4944 161.831 95.0397 161.381 95.4893C160.932 95.9389 160.395 96.1637 159.77 96.1637C159.146 96.1637 158.609 95.9389 158.155 95.4852C157.702 95.0314 157.477 94.4861 157.477 93.8534C157.477 93.2081 157.702 92.6586 158.151 92.2049C158.601 91.7512 159.133 91.5222 159.77 91.5222Z" fill="#373785"/>
<path d="M48.6625 135.639L48.5834 135.726C47.8549 135.693 47.4303 135.676 47.3096 135.676C47.0723 135.676 46.8517 135.681 46.6602 135.693C46.373 135.71 46.1898 135.714 46.1107 135.714C45.9484 135.714 45.8152 135.668 45.7028 135.581C45.428 135.373 45.0825 135.027 44.6579 134.548L41.2486 130.735V132.471C41.2486 133.633 41.2819 134.39 41.3444 134.74C41.3694 134.881 41.4526 134.973 41.5942 135.01C41.6691 135.031 41.9521 135.056 42.4517 135.085L42.5266 135.16V135.651L42.46 135.726C41.973 135.697 41.2195 135.681 40.208 135.681C39.1589 135.681 38.4097 135.697 37.9559 135.726L37.881 135.66V135.16L37.9559 135.085C38.4554 135.056 38.7385 135.031 38.8134 135.01C38.955 134.973 39.0382 134.881 39.0632 134.74C39.1256 134.39 39.1589 133.633 39.1589 132.471V128.6C39.1589 127.438 39.1256 126.681 39.0632 126.331C39.0382 126.19 38.955 126.098 38.8134 126.06C38.7385 126.04 38.4554 126.015 37.9559 125.986L37.881 125.911V125.411L37.9559 125.344C38.4263 125.374 39.1756 125.39 40.208 125.39C41.2653 125.39 42.0188 125.374 42.46 125.344L42.5266 125.411V125.911L42.4517 125.986C41.9521 126.015 41.6691 126.04 41.5942 126.06C41.4526 126.098 41.3694 126.19 41.3444 126.331C41.2819 126.681 41.2486 127.438 41.2486 128.6V130.415C41.4859 130.165 42.0104 129.632 42.8138 128.812C43.2384 128.379 43.5382 128.063 43.713 127.867C44.1917 127.334 44.5122 126.964 44.6704 126.756C44.9327 126.414 45.0659 126.173 45.0659 126.031C45.0659 125.973 45.0451 125.931 44.9993 125.906L44.9202 125.84V125.424L45.0076 125.349C45.5446 125.378 46.0483 125.394 46.5145 125.394C46.8351 125.394 47.3138 125.378 47.9507 125.349L48.0298 125.424V125.915L47.9548 125.981C47.4262 126.002 47.039 126.069 46.7934 126.177C46.5895 126.269 46.2648 126.506 45.8277 126.881C45.3406 127.297 44.7121 127.871 43.9378 128.616C43.6506 128.899 43.2634 129.27 42.7805 129.728L46.9641 134.074C47.5386 134.673 48.0839 135.019 48.5959 135.114L48.6625 135.189V135.639Z" fill="#373785"/>
<path d="M60.6637 130.269C60.6637 132.067 60.1392 133.483 59.0902 134.507C58.0703 135.502 56.68 136.001 54.9108 136.001C53.2415 136.001 51.9344 135.531 50.9812 134.594C50.0279 133.657 49.5533 132.35 49.5533 130.677C49.5533 128.329 50.4483 126.706 52.2383 125.802C53.0542 125.394 54.0574 125.186 55.2438 125.186C56.9464 125.186 58.2701 125.632 59.2151 126.527C60.1808 127.43 60.6637 128.679 60.6637 130.269ZM58.4075 130.648C58.4075 129.232 58.1244 128.109 57.5541 127.28C56.9839 126.452 56.1513 126.031 55.0565 126.031C53.6079 126.031 52.6463 126.681 52.1717 127.984C51.9261 128.654 51.8054 129.399 51.8054 130.232C51.8054 131.738 52.0843 132.929 52.6379 133.803C53.2124 134.706 54.0741 135.156 55.223 135.156C56.6134 135.156 57.5458 134.469 58.0245 133.1C58.2826 132.371 58.4075 131.555 58.4075 130.648Z" fill="#373785"/>
<path d="M71.7033 134.394L71.3661 135.139C70.3379 135.706 69.1848 135.989 67.911 135.989C65.3634 135.989 63.6234 135.073 62.6868 133.237C62.2539 132.388 62.0374 131.468 62.0374 130.477C62.0374 128.879 62.5702 127.601 63.6317 126.652C64.7182 125.669 66.2043 125.182 68.09 125.182C69.2848 125.182 70.4545 125.399 71.5951 125.832L71.6908 125.94C71.5243 126.614 71.4244 127.401 71.3828 128.304L71.3162 128.379H70.8832L70.8083 128.3C70.7917 127.709 70.7667 127.301 70.7292 127.072C70.1215 126.385 69.239 126.04 68.0859 126.04C66.8995 126.04 65.9712 126.414 65.2968 127.168C64.6225 127.921 64.2853 128.937 64.2853 130.227C64.2853 131.967 64.8847 133.304 66.0836 134.236C66.7247 134.736 67.578 134.981 68.652 134.981C69.6261 134.981 70.5794 134.731 71.5118 134.228L71.7033 134.394Z" fill="#373785"/>
<path d="M81.8688 125.394C81.8105 125.757 81.7772 126.127 81.773 126.514L81.7564 127.738L81.6814 127.813H81.2194L81.1403 127.746C81.1153 127.122 81.0903 126.756 81.0612 126.647C81.0029 126.452 80.8447 126.339 80.5908 126.302C80.4951 126.285 80.033 126.281 79.2171 126.281H78.2347C78.2264 126.452 78.218 127.13 78.218 128.317V132.471C78.218 133.632 78.2513 134.39 78.3138 134.74C78.3388 134.881 78.422 134.973 78.5635 135.01C78.6385 135.031 78.9215 135.056 79.4211 135.085L79.496 135.16V135.651L79.4211 135.726C78.9382 135.697 78.1889 135.681 77.169 135.681C76.1242 135.681 75.3749 135.697 74.917 135.726L74.8504 135.66V135.16L74.9253 135.085C75.4248 135.056 75.7079 135.031 75.7828 135.01C75.9244 134.973 76.0076 134.881 76.0326 134.74C76.095 134.39 76.1283 133.632 76.1283 132.471V128.317C76.1283 127.114 76.12 126.435 76.1075 126.281H75.0627C74.1885 126.281 73.6806 126.306 73.5349 126.36C73.4558 126.389 73.4017 126.427 73.3726 126.468C73.3268 126.547 73.2935 126.701 73.2644 126.939C73.2311 127.197 73.2102 127.463 73.1978 127.738L73.1228 127.813H72.6608L72.5817 127.738L72.565 126.485C72.5609 126.135 72.5317 125.769 72.4776 125.394L72.5442 125.319C72.8314 125.369 73.8804 125.394 75.6912 125.394H78.6551C80.3244 125.394 81.3734 125.369 81.8022 125.319L81.8688 125.394Z" fill="#373785"/>
<path d="M93.9615 130.269C93.9615 132.067 93.437 133.483 92.388 134.507C91.3681 135.502 89.9778 136.001 88.2086 136.001C86.5393 136.001 85.2322 135.531 84.279 134.594C83.3257 133.657 82.8511 132.35 82.8511 130.677C82.8511 128.329 83.7461 126.706 85.5361 125.802C86.352 125.394 87.3552 125.186 88.5416 125.186C90.2442 125.186 91.5679 125.632 92.517 126.527C93.4828 127.43 93.9615 128.679 93.9615 130.269ZM91.7095 130.648C91.7095 129.232 91.4264 128.109 90.8561 127.28C90.2858 126.452 89.4533 126.031 88.3585 126.031C86.9098 126.031 85.9482 126.681 85.4737 127.984C85.2281 128.654 85.1073 129.399 85.1073 130.232C85.1073 131.738 85.3862 132.929 85.9399 133.803C86.5144 134.706 87.376 135.156 88.525 135.156C89.9153 135.156 90.8478 134.469 91.3265 133.1C91.5804 132.371 91.7095 131.555 91.7095 130.648Z" fill="#373785"/>
<path d="M106.446 135.668L106.371 135.718C105.359 135.689 104.61 135.672 104.119 135.672C103.065 135.672 102.312 135.689 101.867 135.718L101.8 135.651L101.792 135.152L101.867 135.077C102.366 135.048 102.649 135.023 102.724 135.002C102.866 134.965 102.949 134.873 102.974 134.732C103.036 134.382 103.07 133.624 103.07 132.463V128.525C103.07 127.538 103.049 126.743 103.003 126.131H98.5613C98.5156 126.739 98.4947 127.538 98.4947 128.525V132.463C98.4947 133.624 98.528 134.382 98.5905 134.732C98.6155 134.873 98.6987 134.965 98.8402 135.002C98.9152 135.023 99.1982 135.048 99.6894 135.077L99.7685 135.152V135.651L99.7019 135.718C98.6737 135.689 97.9203 135.672 97.4499 135.672C96.6673 135.672 95.9138 135.689 95.1895 135.718L95.1229 135.651V135.152L95.1978 135.077C95.6974 135.048 95.9804 135.023 96.0554 135.002C96.1969 134.965 96.2802 134.873 96.3051 134.732C96.3676 134.382 96.4009 133.624 96.4009 132.463V128.591C96.4009 127.43 96.3676 126.672 96.3051 126.323C96.2802 126.181 96.1969 126.09 96.0554 126.052C95.9804 126.031 95.6974 126.006 95.1978 125.977L95.1229 125.902V125.403L95.1978 125.336L99.1774 125.382H103.29C103.869 125.382 104.901 125.365 106.379 125.336L106.454 125.403V125.902L106.375 125.977C105.875 126.006 105.592 126.031 105.517 126.052C105.376 126.09 105.293 126.181 105.268 126.323C105.205 126.672 105.172 127.43 105.172 128.591V132.463C105.172 133.624 105.205 134.382 105.268 134.732C105.293 134.873 105.376 134.965 105.517 135.002C105.584 135.023 105.875 135.048 106.379 135.077L106.454 135.152V135.668H106.446Z" fill="#373785"/>
<path d="M115.683 127.642C115.683 128.646 115.341 129.432 114.655 129.994C113.968 130.556 113.193 130.839 112.332 130.839C112.04 130.839 111.745 130.806 111.445 130.735C111.399 130.602 111.316 130.427 111.187 130.207L111.341 130.044C111.545 130.111 111.732 130.148 111.903 130.148C112.394 130.148 112.79 129.973 113.089 129.624C113.389 129.274 113.535 128.787 113.535 128.158C113.535 126.797 112.923 126.119 111.699 126.119C111.553 126.119 111.262 126.148 110.821 126.206C110.775 126.323 110.754 127.122 110.754 128.6V132.471C110.754 133.633 110.787 134.39 110.85 134.74C110.875 134.881 110.958 134.973 111.1 135.01C111.145 135.019 111.478 135.044 112.103 135.085L112.182 135.164V135.647L112.107 135.722C111.437 135.693 110.638 135.676 109.705 135.676C108.656 135.676 107.907 135.693 107.453 135.722L107.378 135.656V135.164L107.457 135.085C107.948 135.056 108.231 135.031 108.306 135.01C108.448 134.973 108.531 134.881 108.556 134.74C108.619 134.39 108.652 133.633 108.652 132.471V128.6C108.652 127.438 108.619 126.681 108.556 126.331C108.531 126.19 108.448 126.098 108.306 126.06C108.231 126.04 107.948 126.015 107.449 125.986L107.374 125.906V125.424L107.453 125.349C107.932 125.378 108.664 125.394 109.655 125.394C110.063 125.394 110.654 125.386 111.424 125.374C112.194 125.361 112.64 125.353 112.756 125.353C114.093 125.353 114.963 125.69 115.362 126.369C115.579 126.718 115.683 127.143 115.683 127.642Z" fill="#373785"/>
<path d="M127.359 135.647L127.293 135.722C126.21 135.693 125.557 135.676 125.332 135.676C124.433 135.676 123.6 135.693 122.83 135.722L122.764 135.647V135.185L122.839 135.106L123.475 135.069C123.742 135.052 123.879 134.96 123.879 134.781C123.879 134.677 123.813 134.448 123.675 134.095L123.084 132.55C122.41 132.542 121.723 132.534 121.019 132.534C120.641 132.534 120.074 132.538 119.321 132.55L119 133.441C118.755 134.12 118.634 134.544 118.634 134.715C118.634 134.902 118.751 135.01 118.98 135.044C119.105 135.065 119.354 135.081 119.725 135.102L119.8 135.177V135.647L119.725 135.722C118.821 135.693 118.243 135.676 117.985 135.676C117.785 135.676 117.29 135.693 116.499 135.722L116.424 135.656V135.181L116.503 135.106C117.006 135.077 117.315 134.977 117.427 134.806C117.539 134.636 117.972 133.62 118.717 131.755L120.628 126.976C120.77 126.606 120.986 126.048 121.273 125.299H122.314L126.194 134.423C126.344 134.769 126.481 134.965 126.602 135.01C126.764 135.069 126.993 135.098 127.297 135.098L127.363 135.177V135.647H127.359ZM122.722 131.709L121.157 127.875L119.658 131.709C120.058 131.726 120.578 131.73 121.215 131.73C121.831 131.73 122.335 131.722 122.722 131.709Z" fill="#373785"/>
<path d="M136.771 132.375C136.771 133.599 136.18 134.548 134.994 135.223C134.407 135.556 133.653 135.722 132.733 135.722C132.442 135.722 132.201 135.718 132.009 135.714L130.261 135.676C129.636 135.676 129.153 135.693 128.812 135.722L128.737 135.647V135.443L128.775 135.356C129.137 135.127 129.332 134.981 129.362 134.923C129.407 134.836 129.432 134.511 129.441 133.949L129.461 132.309V128.6C129.461 127.438 129.428 126.681 129.366 126.331C129.341 126.189 129.257 126.098 129.116 126.06C129.041 126.04 128.758 126.015 128.258 125.985L128.183 125.911V125.411L128.258 125.344C128.691 125.374 129.441 125.39 130.498 125.39C131.172 125.39 131.78 125.378 132.321 125.353C132.75 125.332 133.112 125.324 133.412 125.324C134.773 125.324 135.664 125.632 136.089 126.252C136.313 126.581 136.426 126.955 136.426 127.38C136.426 128.071 136.155 128.65 135.614 129.116C135.356 129.337 135.085 129.499 134.811 129.607C134.49 129.728 134.136 129.832 133.757 129.923C135.764 130.011 136.771 130.827 136.771 132.375ZM134.215 127.742C134.215 126.664 133.653 126.127 132.534 126.127C132.163 126.127 131.847 126.148 131.589 126.185C131.568 126.697 131.559 127.172 131.559 127.605V129.624C131.672 129.632 131.897 129.64 132.234 129.64C133.116 129.64 133.699 129.357 133.974 128.791C134.136 128.462 134.215 128.113 134.215 127.742ZM134.532 132.6C134.532 131.135 133.762 130.406 132.226 130.406C132.03 130.406 131.809 130.415 131.559 130.427V133.816C131.559 134.182 131.568 134.54 131.589 134.89C131.788 134.923 132.067 134.94 132.429 134.94C133.112 134.94 133.641 134.723 134.011 134.294C134.357 133.891 134.532 133.324 134.532 132.6Z" fill="#373785"/>
<path d="M52.6796 150.512C52.6796 151.586 52.2466 152.406 51.3849 152.977C50.6481 153.468 49.7115 153.718 48.5751 153.718C48.3461 153.718 47.9007 153.705 47.2347 153.68C46.8351 153.664 46.4979 153.659 46.2231 153.659C45.9859 153.659 45.2241 153.676 43.9461 153.705L43.8795 153.655V153.143L43.9544 153.068C44.454 153.039 44.737 153.014 44.812 152.993C44.9535 152.956 45.0368 152.864 45.0617 152.723C45.1242 152.373 45.1575 151.615 45.1575 150.454V146.583C45.1575 145.421 45.1242 144.664 45.0617 144.314C45.0368 144.173 44.9535 144.081 44.812 144.043C44.737 144.023 44.454 143.998 43.9544 143.969L43.8795 143.894V143.394L43.9544 143.327L47.9132 143.373L50.9354 143.357C51.2809 143.348 51.5764 143.327 51.8137 143.298L51.8928 143.373C51.8345 143.71 51.8012 144.073 51.7971 144.464L51.7804 145.717L51.7055 145.792H51.2351L51.1602 145.725C51.1435 145.442 51.131 145.159 51.1144 144.876C51.0603 144.501 50.927 144.277 50.7189 144.202C50.569 144.148 50.0695 144.123 49.2245 144.123H47.3055C47.2597 145.334 47.2389 146.079 47.2389 146.362V147.761C48.5709 147.761 49.5284 147.811 50.107 147.915C51.8262 148.215 52.6796 149.08 52.6796 150.512ZM50.4691 150.65C50.4691 149.95 50.2652 149.418 49.8531 149.039C49.4867 148.706 49.008 148.531 48.4169 148.506C48.1713 148.498 47.7842 148.489 47.2555 148.489V152.873C47.4845 152.906 47.7634 152.923 48.088 152.923C48.6459 152.923 49.0496 152.877 49.3036 152.789C49.6699 152.656 49.9613 152.394 50.1819 151.998C50.3734 151.657 50.4691 151.208 50.4691 150.65Z" fill="#373785"/>
<path d="M62.0499 151.212C61.9417 151.924 61.8875 152.727 61.8875 153.626L61.8126 153.701L56.4926 153.655C55.606 153.655 54.9774 153.672 54.6111 153.701L54.5361 153.626V153.422L54.5736 153.335C54.9358 153.106 55.1314 152.96 55.1605 152.902C55.2063 152.81 55.2313 152.486 55.2396 151.928L55.2605 150.288V146.579C55.2605 145.417 55.2272 144.66 55.1647 144.31C55.1397 144.168 55.0565 144.077 54.9149 144.039C54.84 144.019 54.5569 143.994 54.0574 143.964L53.9825 143.89V143.39L54.0574 143.323C54.5486 143.353 55.3104 143.369 56.3386 143.369C57.2544 143.369 58.9986 143.353 61.5712 143.323L61.6503 143.382L61.5545 144.193C61.5254 144.451 61.5046 144.672 61.4879 144.851L61.438 145.53L61.363 145.609H60.9384L60.8635 145.534C60.8594 144.872 60.8177 144.493 60.747 144.402C60.6928 144.335 60.4306 144.281 59.9602 144.239C59.4898 144.198 59.0777 144.181 58.7197 144.181C58.2951 144.181 57.8663 144.198 57.4334 144.231C57.3793 144.743 57.3543 145.455 57.3543 146.362V147.877C57.7414 147.902 58.0537 147.915 58.2909 147.915L59.2484 147.907C59.6979 147.902 59.9519 147.865 60.0102 147.798C60.0892 147.711 60.1392 147.382 60.1642 146.812L60.2391 146.737H60.6928L60.7678 146.812C60.747 147.357 60.7386 147.857 60.7386 148.31C60.7386 148.802 60.747 149.343 60.7678 149.926L60.6928 149.992H60.2016L60.1267 149.917C60.1267 149.355 60.0892 149.022 60.0102 148.918C59.9311 148.814 59.6938 148.743 59.2983 148.71C59.0028 148.685 58.6822 148.673 58.3451 148.673C57.9871 148.673 57.6582 148.685 57.3502 148.71V150.941C57.3502 151.582 57.3626 152.198 57.3876 152.798H58.3825C59.8062 152.798 60.6803 152.744 61.0009 152.631C61.055 152.61 61.0925 152.586 61.1174 152.552C61.1674 152.486 61.2132 152.336 61.2548 152.115L61.4297 151.208L61.5046 151.129H61.95L62.0499 151.212Z" fill="#373785"/>
<path d="M72.9605 152.377L72.6233 153.122C71.5951 153.689 70.442 153.972 69.1682 153.972C66.6206 153.972 64.8806 153.056 63.9439 151.22C63.511 150.371 63.2946 149.451 63.2946 148.46C63.2946 146.862 63.8274 145.584 64.8889 144.635C65.9754 143.652 67.4615 143.165 69.3472 143.165C70.5419 143.165 71.7116 143.382 72.8522 143.815L72.948 143.923C72.7815 144.597 72.6816 145.384 72.6399 146.287L72.5733 146.362H72.1404L72.0655 146.283C72.0488 145.692 72.0238 145.284 71.9864 145.055C71.3786 144.368 70.4961 144.023 69.343 144.023C68.1566 144.023 67.2284 144.397 66.554 145.151C65.8796 145.904 65.5424 146.92 65.5424 148.21C65.5424 149.95 66.1419 151.287 67.3407 152.219C67.9818 152.719 68.8352 152.964 69.9092 152.964C70.8832 152.964 71.8365 152.714 72.769 152.211L72.9605 152.377Z" fill="#373785"/>
<path d="M83.7836 152.377L83.4464 153.122C82.4182 153.689 81.2651 153.972 79.9913 153.972C77.4437 153.972 75.7037 153.056 74.7671 151.22C74.3342 150.371 74.1177 149.451 74.1177 148.46C74.1177 146.862 74.6505 145.584 75.712 144.635C76.7985 143.652 78.2846 143.165 80.1703 143.165C81.365 143.165 82.5348 143.382 83.6754 143.815L83.7711 143.923C83.6046 144.597 83.5047 145.384 83.4631 146.287L83.3965 146.362H82.9635L82.8886 146.283C82.872 145.692 82.847 145.284 82.8095 145.055C82.2018 144.368 81.3193 144.023 80.1662 144.023C78.9798 144.023 78.0515 144.397 77.3771 145.151C76.7028 145.904 76.3656 146.92 76.3656 148.21C76.3656 149.95 76.965 151.287 78.1639 152.219C78.805 152.719 79.6583 152.964 80.7323 152.964C81.7064 152.964 82.6597 152.714 83.5921 152.211L83.7836 152.377Z" fill="#373785"/>
<path d="M96.0471 148.252C96.0471 150.05 95.5225 151.466 94.4735 152.49C93.4537 153.485 92.0633 153.984 90.2941 153.984C88.6249 153.984 87.3178 153.514 86.3645 152.577C85.4112 151.641 84.9367 150.333 84.9367 148.66C84.9367 146.312 85.8317 144.689 87.6217 143.785C88.4376 143.377 89.4408 143.169 90.6313 143.169C92.3339 143.169 93.6576 143.615 94.6026 144.51C95.5683 145.413 96.0471 146.662 96.0471 148.252ZM93.795 148.631C93.795 147.215 93.5119 146.092 92.9416 145.263C92.3713 144.435 91.5388 144.014 90.444 144.014C88.9954 144.014 88.0338 144.664 87.5592 145.967C87.3136 146.637 87.1929 147.382 87.1929 148.215C87.1929 149.721 87.4718 150.912 88.0254 151.786C88.5999 152.69 89.4616 153.139 90.6105 153.139C92.0009 153.139 92.9333 152.452 93.412 151.083C93.666 150.354 93.795 149.538 93.795 148.631Z" fill="#373785"/>
<path d="M108.752 153.63L108.677 153.705C108.194 153.676 107.445 153.659 106.425 153.659C105.38 153.659 104.631 153.676 104.173 153.705L104.098 153.639V153.139L104.177 153.064C104.676 153.035 104.959 153.01 105.034 152.989C105.176 152.952 105.259 152.86 105.284 152.719C105.347 152.369 105.38 151.611 105.38 150.45V148.685C105.13 148.66 104.339 148.648 103.007 148.648C101.779 148.648 100.967 148.66 100.576 148.685V150.45C100.576 151.611 100.609 152.369 100.672 152.719C100.697 152.86 100.78 152.952 100.922 152.989C100.997 153.01 101.28 153.035 101.779 153.064L101.854 153.139V153.63L101.787 153.705C101.3 153.676 100.547 153.659 99.5354 153.659C98.4864 153.659 97.7371 153.676 97.2834 153.705L97.2085 153.639V153.139L97.2834 153.064C97.7829 153.035 98.066 153.01 98.1409 152.989C98.2824 152.952 98.3657 152.86 98.3907 152.719C98.4531 152.369 98.4864 151.611 98.4864 150.45V146.579C98.4864 145.417 98.4531 144.66 98.3907 144.31C98.3657 144.168 98.2824 144.077 98.1409 144.039C98.066 144.019 97.7829 143.994 97.2834 143.964L97.2085 143.89V143.39L97.2834 143.323C97.7538 143.353 98.5031 143.369 99.5354 143.369C100.593 143.369 101.346 143.353 101.787 143.323L101.854 143.39V143.894L101.779 143.96C101.28 143.989 100.997 144.014 100.922 144.035C100.78 144.073 100.697 144.164 100.672 144.306C100.609 144.655 100.576 145.413 100.576 146.574V147.782C101.092 147.807 101.804 147.819 102.712 147.819C104.135 147.819 105.022 147.807 105.376 147.782V146.574C105.376 145.413 105.342 144.655 105.28 144.306C105.255 144.164 105.172 144.073 105.03 144.035C104.955 144.014 104.672 143.989 104.173 143.96L104.094 143.885V143.386L104.169 143.319C104.643 143.348 105.392 143.365 106.421 143.365C107.482 143.365 108.236 143.348 108.673 143.319L108.748 143.386V143.89L108.681 143.956C108.173 143.985 107.886 144.01 107.819 144.031C107.678 144.069 107.594 144.16 107.57 144.302C107.507 144.651 107.474 145.409 107.474 146.57V150.442C107.474 151.603 107.507 152.361 107.57 152.71C107.594 152.852 107.678 152.943 107.819 152.981C107.894 153.002 108.177 153.027 108.677 153.056L108.752 153.131V153.63Z" fill="#373785"/>
<path d="M121.015 148.252C121.015 150.05 120.491 151.466 119.442 152.49C118.422 153.485 117.031 153.984 115.262 153.984C113.593 153.984 112.286 153.514 111.333 152.577C110.379 151.641 109.905 150.333 109.905 148.66C109.905 146.312 110.8 144.689 112.59 143.785C113.406 143.377 114.409 143.169 115.595 143.169C117.298 143.169 118.622 143.615 119.567 144.51C120.537 145.413 121.015 146.662 121.015 148.252ZM118.763 148.631C118.763 147.215 118.48 146.092 117.91 145.263C117.34 144.435 116.507 144.014 115.412 144.014C113.964 144.014 113.002 144.664 112.527 145.967C112.282 146.637 112.161 147.382 112.161 148.215C112.161 149.721 112.44 150.912 112.994 151.786C113.568 152.69 114.43 153.139 115.579 153.139C116.969 153.139 117.901 152.452 118.38 151.083C118.634 150.354 118.763 149.538 118.763 148.631Z" fill="#373785"/>
<path d="M130.756 150.358C130.756 151.582 130.165 152.531 128.979 153.206C128.392 153.539 127.638 153.705 126.718 153.705C126.427 153.705 126.185 153.701 125.994 153.697L124.246 153.659C123.621 153.659 123.138 153.676 122.797 153.705L122.722 153.63V153.426L122.759 153.339C123.122 153.11 123.317 152.964 123.346 152.906C123.392 152.819 123.417 152.494 123.425 151.932L123.446 150.292V146.583C123.446 145.421 123.413 144.664 123.351 144.314C123.326 144.173 123.242 144.081 123.101 144.044C123.026 144.023 122.743 143.998 122.243 143.969L122.168 143.894V143.394L122.243 143.328C122.676 143.357 123.425 143.373 124.483 143.373C125.157 143.373 125.765 143.361 126.306 143.336C126.735 143.315 127.097 143.307 127.397 143.307C128.758 143.307 129.649 143.615 130.073 144.235C130.298 144.564 130.411 144.939 130.411 145.363C130.411 146.054 130.14 146.633 129.599 147.099C129.341 147.32 129.07 147.482 128.795 147.59C128.475 147.711 128.121 147.815 127.742 147.907C129.749 147.994 130.756 148.81 130.756 150.358ZM128.2 145.725C128.2 144.647 127.638 144.11 126.518 144.11C126.148 144.11 125.832 144.131 125.573 144.168C125.553 144.68 125.544 145.155 125.544 145.588V147.607C125.657 147.615 125.881 147.624 126.219 147.624C127.101 147.624 127.684 147.34 127.959 146.774C128.121 146.445 128.2 146.096 128.2 145.725ZM128.516 150.583C128.516 149.118 127.746 148.389 126.21 148.389C126.015 148.389 125.794 148.398 125.544 148.41V151.799C125.544 152.165 125.553 152.523 125.573 152.873C125.773 152.906 126.052 152.923 126.414 152.923C127.097 152.923 127.626 152.706 127.996 152.277C128.342 151.874 128.516 151.308 128.516 150.583Z" fill="#373785"/>
<path d="M125.103 72.1945L118.826 65.3343L112.548 58.4741C111.624 57.4625 110.059 57.3959 109.047 58.32L106.108 61.0092C105.605 61.7168 105.184 62.3787 104.935 63.4485L104.447 64.7265C104.119 65.5799 102.537 67.5697 102.179 67.886L77.3064 89.7405C76.9567 90.0485 76.1408 90.6604 74.688 90.9227C73.9678 91.0392 72.2778 91.9634 71.9323 92.2839L67.2658 96.5507C66.2543 97.4748 66.1877 99.04 67.1118 100.052L73.3892 106.912L79.6666 113.772C80.5908 114.784 82.156 114.85 83.1675 113.926L87.834 109.659C88.1836 109.339 89.2535 107.74 89.4366 107.033C89.8279 105.609 90.5106 104.851 90.8478 104.531L114.825 81.6939C115.171 81.3608 117.294 79.9663 118.172 79.7124L119.487 79.3419C120.574 79.1837 121.269 78.8257 122.023 78.3886L124.961 75.6995C125.961 74.7712 126.027 73.206 125.103 72.1945Z" fill="#E7CDC6"/>
<path d="M73.3434 92.2672C74.4715 93.6867 75.6038 95.0937 76.7735 96.4674C77.9433 97.8411 79.1297 99.2024 80.3743 100.514C81.594 101.846 82.872 103.119 84.1666 104.381C84.8118 105.014 85.4695 105.63 86.1356 106.242L87.1346 107.162L88.142 108.073C87.4135 107.536 86.71 106.966 86.0024 106.396C85.3072 105.813 84.6245 105.218 83.9501 104.614C82.6056 103.398 81.3234 102.112 80.0746 100.797C78.8508 99.4604 77.6519 98.0951 76.5279 96.6714C75.404 95.2519 74.33 93.7866 73.3434 92.2672Z" fill="#CA9886"/>
<path d="M105.476 63.3569C106.541 64.7848 107.615 66.1959 108.735 67.5738C109.855 68.9475 111 70.3046 112.207 71.6033C113.389 72.9229 114.638 74.1842 115.908 75.4247C116.544 76.045 117.19 76.6527 117.847 77.2522L118.834 78.1513L119.833 79.038C119.113 78.5176 118.413 77.964 117.718 77.4104C117.036 76.8401 116.357 76.2573 115.695 75.6662C114.371 74.4715 113.118 73.1977 111.907 71.8947C110.717 70.5668 109.563 69.2056 108.49 67.7819C107.411 66.3458 106.396 64.8805 105.476 63.3569Z" fill="#CA9886"/>
</svg>
